<svg xmlns="http://www.w3.org/2000/svg" width="173.085" height="173.085" viewBox="0 0 173.085 173.085">
  <g id="Grupo_64" data-name="Grupo 64" transform="translate(9.289 9.289)">
    <g id="Grupo_60" data-name="Grupo 60">
      <g id="Grupo_59" data-name="Grupo 59">
        <circle id="Elipse_15" data-name="Elipse 15" cx="74.542" cy="74.542" r="74.542" transform="translate(2.711 2.711)" opacity="0.6"/>
        <circle id="Elipse_16" data-name="Elipse 16" cx="77.253" cy="77.253" r="77.253" fill="#fff"/>
      </g>
    </g>
    <g id="Grupo_63" data-name="Grupo 63" transform="translate(36.593 40.405)">
      <circle id="Elipse_17" data-name="Elipse 17" cx="10.843" cy="10.843" r="10.843" transform="translate(23.041 5.675)" fill="#198cc9"/>
      <circle id="Elipse_18" data-name="Elipse 18" cx="10.843" cy="10.843" r="10.843" transform="translate(39.305 46.335)" fill="#198cc9"/>
      <g id="Grupo_62" data-name="Grupo 62">
        <path id="Trazado_56" data-name="Trazado 56" d="M338.784,714.07a1.354,1.354,0,0,1,1.355,1.355h2.712a4.069,4.069,0,0,0-2.712-3.817V710h-2.71v1.6a4.057,4.057,0,0,0,1.355,7.884,1.355,1.355,0,1,1-1.355,1.355h-2.71a4.064,4.064,0,0,0,2.71,3.817v1.6h2.71v-1.6a4.057,4.057,0,0,0-1.355-7.884,1.355,1.355,0,1,1,0-2.71Z" transform="translate(-306.256 -701.872)" fill="#166587"/>
        <path id="Trazado_57" data-name="Trazado 57" d="M342.811,707.951a12.2,12.2,0,1,0,12.2,12.2A12.2,12.2,0,0,0,342.811,707.951Zm0,21.684a9.487,9.487,0,1,1,9.488-9.488A9.486,9.486,0,0,1,342.811,729.635Z" transform="translate(-310.284 -703.884)" fill="#166587"/>
        <path id="Trazado_58" data-name="Trazado 58" d="M339.508,713.424h2.71v2.712h-2.71Z" transform="translate(-301.559 -698.516)" fill="#166587"/>
        <path id="Trazado_59" data-name="Trazado 59" d="M332.666,713.424h2.71v2.712h-2.71Z" transform="translate(-308.27 -698.516)" fill="#166587"/>
        <path id="Trazado_60" data-name="Trazado 60" d="M382.7,738.425a2.709,2.709,0,0,0,2.71-2.71V708.608a2.71,2.71,0,0,0-2.71-2.71H323.062a2.712,2.712,0,0,0-2.712,2.71v27.108a2.71,2.71,0,0,0,2.712,2.71Zm-59.633-29.818H382.7v27.108H323.062Z" transform="translate(-320.35 -705.898)" fill="#166587"/>
        <path id="Trazado_61" data-name="Trazado 61" d="M323.087,709.99v5.422h2.71v-4.067h4.067v-2.71h-5.422A1.354,1.354,0,0,0,323.087,709.99Z" transform="translate(-317.665 -703.213)" fill="#166587"/>
        <path id="Trazado_62" data-name="Trazado 62" d="M325.8,716.161h-2.71v5.422a1.354,1.354,0,0,0,1.355,1.355h5.422v-2.71H325.8Z" transform="translate(-317.665 -695.832)" fill="#166587"/>
        <path id="Trazado_63" data-name="Trazado 63" d="M352.456,708.635h-5.422v2.71H351.1v4.067h2.712V709.99A1.356,1.356,0,0,0,352.456,708.635Z" transform="translate(-294.177 -703.213)" fill="#166587"/>
        <path id="Trazado_64" data-name="Trazado 64" d="M351.1,720.228h-4.067v2.71h5.422a1.354,1.354,0,0,0,1.355-1.355v-5.422H351.1Z" transform="translate(-294.177 -695.832)" fill="#166587"/>
        <path id="Trazado_65" data-name="Trazado 65" d="M355.828,729.926l-1.917,1.916,5.75,5.75a1.355,1.355,0,0,0,1.916,0l5.75-5.75-1.917-1.916-3.435,3.437V714.779a1.357,1.357,0,0,0-1.355-1.355H355.2v2.712h4.065v17.227Z" transform="translate(-287.432 -698.516)" fill="#166587"/>
        <g id="Grupo_61" data-name="Grupo 61" transform="translate(1.424 34.237)">
          <path id="Trazado_66" data-name="Trazado 66" d="M347,734.853a1.354,1.354,0,0,1,1.355,1.355h2.71a4.064,4.064,0,0,0-2.71-3.817v-1.6h-2.71v1.6A4.057,4.057,0,0,0,347,740.274a1.355,1.355,0,1,1-1.355,1.355h-2.712a4.069,4.069,0,0,0,2.712,3.817v1.6h2.71v-1.6A4.057,4.057,0,0,0,347,737.562a1.355,1.355,0,1,1,0-2.71Z" transform="translate(-299.628 -715.724)" fill="#166587"/>
          <path id="Trazado_67" data-name="Trazado 67" d="M351.022,728.734a12.2,12.2,0,1,0,12.2,12.2A12.2,12.2,0,0,0,351.022,728.734Zm0,21.684a9.487,9.487,0,1,1,9.486-9.486A9.488,9.488,0,0,1,351.022,750.419Z" transform="translate(-303.654 -717.737)" fill="#166587"/>
          <path id="Trazado_68" data-name="Trazado 68" d="M347.719,734.207h2.71v2.712h-2.71Z" transform="translate(-294.929 -712.369)" fill="#166587"/>
          <path id="Trazado_69" data-name="Trazado 69" d="M340.876,734.207h2.712v2.712h-2.712Z" transform="translate(-301.641 -712.369)" fill="#166587"/>
          <path id="Trazado_70" data-name="Trazado 70" d="M390.9,726.681H331.271a2.709,2.709,0,0,0-2.71,2.71V756.5a2.71,2.71,0,0,0,2.71,2.71H390.9a2.711,2.711,0,0,0,2.712-2.71V729.391A2.71,2.71,0,0,0,390.9,726.681ZM331.271,756.5V729.391H390.9V756.5Z" transform="translate(-313.721 -719.75)" fill="#166587"/>
          <path id="Trazado_71" data-name="Trazado 71" d="M331.3,730.773v5.422h2.71v-4.067h4.067v-2.71h-5.422A1.354,1.354,0,0,0,331.3,730.773Z" transform="translate(-311.036 -717.066)" fill="#166587"/>
          <path id="Trazado_72" data-name="Trazado 72" d="M334.008,736.944H331.3v5.422a1.354,1.354,0,0,0,1.355,1.355h5.422v-2.71h-4.067Z" transform="translate(-311.036 -709.684)" fill="#166587"/>
          <path id="Trazado_73" data-name="Trazado 73" d="M360.667,729.418h-5.422v2.71h4.067v4.067h2.71v-5.422A1.354,1.354,0,0,0,360.667,729.418Z" transform="translate(-287.548 -717.066)" fill="#166587"/>
          <path id="Trazado_74" data-name="Trazado 74" d="M359.312,741.011h-4.067v2.71h5.422a1.354,1.354,0,0,0,1.355-1.355v-5.422h-2.71Z" transform="translate(-287.548 -709.684)" fill="#166587"/>
          <path id="Trazado_75" data-name="Trazado 75" d="M332.568,731.232l1.918-1.917-5.75-5.75a1.392,1.392,0,0,0-1.916,0l-5.75,5.75,1.917,1.917,3.435-3.439v16.043a1.357,1.357,0,0,0,1.355,1.355H333.2v-2.712h-4.065V727.793Z" transform="translate(-321.069 -723.182)" fill="#166587"/>
        </g>
      </g>
    </g>
  </g>
</svg>
