<svg xmlns="http://www.w3.org/2000/svg" width="21.213" height="21.216" viewBox="0 0 21.213 21.216">
  <g id="Grupo_1" data-name="Grupo 1" transform="translate(0 0)">
    <path id="Trazado_2" data-name="Trazado 2" d="M622.382,21.8H607.06a2.952,2.952,0,0,0-2.946,2.948V40.071a2.952,2.952,0,0,0,2.946,2.948h15.322a2.952,2.952,0,0,0,2.946-2.948V24.751A2.952,2.952,0,0,0,622.382,21.8Zm1.767,18.268a1.768,1.768,0,0,1-1.767,1.769H607.06a1.77,1.77,0,0,1-1.769-1.769V24.751a1.77,1.77,0,0,1,1.769-1.769h15.322a1.768,1.768,0,0,1,1.767,1.769Z" transform="translate(-604.114 -21.803)" fill="#f2f2f2"/>
    <path id="Trazado_3" data-name="Trazado 3" d="M611.926,23.722a5.893,5.893,0,1,0,5.892,5.894A5.894,5.894,0,0,0,611.926,23.722Zm0,10.607a4.714,4.714,0,1,1,4.715-4.713A4.714,4.714,0,0,1,611.926,34.329Z" transform="translate(-601.32 -19.007)" fill="#f2f2f2"/>
    <path id="Trazado_4" data-name="Trazado 4" d="M612.117,22.763a1.768,1.768,0,1,0,1.769,1.767A1.767,1.767,0,0,0,612.117,22.763Zm0,2.356a.59.59,0,1,1,.59-.59A.59.59,0,0,1,612.117,25.119Z" transform="translate(-595.028 -20.404)" fill="#f2f2f2"/>
  </g>
</svg>
