<svg xmlns="http://www.w3.org/2000/svg" width="173.085" height="173.085" viewBox="0 0 173.085 173.085">
  <g id="Grupo_71" data-name="Grupo 71" transform="translate(9.289 9.289)">
    <g id="Grupo_67" data-name="Grupo 67">
      <g id="Grupo_66" data-name="Grupo 66">
        <circle id="Elipse_19" data-name="Elipse 19" cx="74.542" cy="74.542" r="74.542" transform="translate(2.711 2.711)" opacity="0.6"/>
        <circle id="Elipse_20" data-name="Elipse 20" cx="77.253" cy="77.253" r="77.253" fill="#fff"/>
      </g>
    </g>
    <g id="Grupo_182" data-name="Grupo 182" transform="translate(-81 -1786.415)">
      <g id="Grupo_169" data-name="Grupo 169" transform="translate(127 1819.208)">
        <path id="Trazado_159" data-name="Trazado 159" d="M275.229,398.92c.8-1.37.733-2.9.955-4.522a7.116,7.116,0,0,1,5.382-5.382c1.624-.223,3.153-.159,4.522-.955s2.1-2.165,3.121-3.471a7.052,7.052,0,0,1,7.325-1.943c1.528.606,2.834,1.434,4.427,1.434s2.9-.828,4.427-1.434a7.051,7.051,0,0,1,7.324,1.943c1.019,1.306,1.751,2.675,3.121,3.471s2.9.732,4.553.955a6.857,6.857,0,0,1,3.471,1.91,6.773,6.773,0,0,1,1.879,3.471c.223,1.624.191,3.153.956,4.522.8,1.369,2.165,2.1,3.471,3.121a6.692,6.692,0,0,1,2.038,3.376,6.41,6.41,0,0,1-.1,3.948c-.6,1.529-1.433,2.835-1.433,4.427s.828,2.9,1.433,4.427a6.656,6.656,0,0,1,.127,3.949,6.978,6.978,0,0,1-2.07,3.376c-1.306,1.018-2.676,1.752-3.471,3.121-.765,1.369-.733,2.9-.956,4.554a6.918,6.918,0,0,1-5.35,5.35c-1.656.222-3.184.159-4.553.956s-2.1,2.165-3.121,3.471a6.7,6.7,0,0,1-3.376,2.039,6.424,6.424,0,0,1-3.948-.1c-1.53-.605-2.835-1.434-4.427-1.434s-2.9.828-4.427,1.434a6.426,6.426,0,0,1-3.949.1,6.7,6.7,0,0,1-3.376-2.039c-1.019-1.305-1.751-2.675-3.121-3.471s-2.9-.733-4.522-.956a6.78,6.78,0,0,1-3.47-1.878,6.854,6.854,0,0,1-1.912-3.471c-.222-1.656-.159-3.185-.955-4.554s-2.165-2.1-3.471-3.121a7.05,7.05,0,0,1-1.942-7.325c.6-1.528,1.433-2.834,1.433-4.427s-.828-2.9-1.433-4.427a7.049,7.049,0,0,1,1.942-7.324c1.305-1.019,2.675-1.752,3.471-3.121Zm27.419,58.627,3.7,11.433c.636,1.973,1.592,1.719,2.388.191l4.745-9.013a.866.866,0,0,1,1.305-.413l9.139,4.49c1.53.764,2.452.414,1.816-1.56l-6.751-20.764a4.267,4.267,0,0,0-1.56.382,12.744,12.744,0,0,0-2.2,2.644,10.019,10.019,0,0,1-5.063,3.184,10.271,10.271,0,0,1-4.522.191Zm-6.242,8.885,6.242-19.235a5.7,5.7,0,0,0-1.687-.51,12.789,12.789,0,0,0-3.216,1.21,9.843,9.843,0,0,1-5.987.223,10.015,10.015,0,0,1-5.064-3.184,13.621,13.621,0,0,0-2.2-2.644,4.264,4.264,0,0,0-1.56-.382l-5.923,18.247c-.637,1.943.286,2.325,1.815,1.561l9.139-4.522a.878.878,0,0,1,1.305.413l4.745,9.045c.8,1.5,1.752,1.751,2.388-.223Zm12.8-62.736-11.783,11.783-4.713-4.713a4.036,4.036,0,0,0-5.732,0,4.1,4.1,0,0,0,0,5.732l7.579,7.579a4.6,4.6,0,0,0,5.732,0l14.649-14.648a4.1,4.1,0,0,0,0-5.733,4.037,4.037,0,0,0-5.732,0Zm-8.248-12.515a22.61,22.61,0,1,1-22.611,22.61,22.616,22.616,0,0,1,22.611-22.61Z" transform="translate(-269.469 -382.3)" fill="#3499cd" stroke="#166587" stroke-miterlimit="10" stroke-width="3" fill-rule="evenodd"/>
      </g>
    </g>
  </g>
</svg>
