<svg xmlns="http://www.w3.org/2000/svg" width="173.085" height="173.085" viewBox="0 0 173.085 173.085">
  <g id="Grupo_57" data-name="Grupo 57" transform="translate(9.289 9.289)">
    <g id="Grupo_54" data-name="Grupo 54">
      <circle id="Elipse_13" data-name="Elipse 13" cx="74.542" cy="74.542" r="74.542" transform="translate(2.711 2.711)" opacity="0.6"/>
      <circle id="Elipse_14" data-name="Elipse 14" cx="77.253" cy="77.253" r="77.253" fill="#fff"/>
    </g>
    <path id="Trazado_51" data-name="Trazado 51" d="M154.894,744.277l5.311-3.423a5.2,5.2,0,0,0,2.387-4.378v-3.318h4.281a3.476,3.476,0,0,0,2.892-1.549l1.925-2.89a1.739,1.739,0,0,1,1.446-.772h4.875a1.735,1.735,0,0,1,1.478.824l3.7,6.194a1.721,1.721,0,0,1,.248.889v8.024a1.738,1.738,0,0,1-.509,1.23l-4.913,4.912a1.738,1.738,0,0,1-1.23.509h-4.457a5.211,5.211,0,0,0-2.894.878l-3.7,2.474A38.546,38.546,0,0,1,154.894,744.277Z" transform="translate(-108.805 -643.866)" fill="#198cc9"/>
    <path id="Trazado_52" data-name="Trazado 52" d="M178.458,705.886l.02,1.769a1.731,1.731,0,0,1-.844,1.509l-4.376,2.625a5.234,5.234,0,0,0-2.108,6.525l2.975,6.949a1.739,1.739,0,0,1-.511,2.042l-5.671,4.536a1.75,1.75,0,0,1-1.082.372h-3.429a3.475,3.475,0,0,0-3.348,4.429l2.215,7.731h-1.834l-2.036-4.069a5.174,5.174,0,0,0-4.659-2.88h-2.7A38.314,38.314,0,0,1,178.458,705.886Z" transform="translate(-112.554 -665.505)" fill="#198cc9"/>
    <path id="Trazado_53" data-name="Trazado 53" d="M187.574,710.146s-2.658-.921-13.527,7.67l-2.736,5.883,2.71,2.71,2.712,2.712,2.71,8.131,8.131,5.422,8.131-2.712,2.712,2.712v8.131L193,756.227h-5.422l-2.71,8.131,5.422,8.131s21.684-10.841,18.975-48.79l-5.422,5.422-2.712-2.712v-5.422l-5.422-5.422-10.841,10.843-2.712-2.71Z" transform="translate(-92.702 -661.354)" fill="#198cc9"/>
    <g id="Grupo_56" data-name="Grupo 56" transform="translate(34.676 30.263)">
      <g id="Grupo_55" data-name="Grupo 55" transform="translate(0 5.165)">
        <path id="Trazado_54" data-name="Trazado 54" d="M232.52,745.09a41.757,41.757,0,0,0-.62-7.2l-3.423.6a38.223,38.223,0,0,1-15.718,37.87l-2.8-4.568a5.182,5.182,0,0,1-.22-5.055l.79-1.579a1.73,1.73,0,0,1,1.553-.959h2.45a5.19,5.19,0,0,0,4.839-3.276l2.351-5.879a5.154,5.154,0,0,0,.372-1.937v-3.821a3.439,3.439,0,0,0-1.018-2.458l-2.084-2.086a3.473,3.473,0,0,0-4.011-.65l-4.277,2.137a1.728,1.728,0,0,1-1.553,0l-6.949-3.474a1.727,1.727,0,0,1-.955-1.549v-4.8a3.474,3.474,0,0,0-3.474-3.475,1.738,1.738,0,0,1-1.737-1.739v-1.737a1.739,1.739,0,0,1,.7-1.389l5.558-4.17-2.084-2.779-5.558,4.17a5.236,5.236,0,0,0-2.086,4.168v1.737a5.213,5.213,0,0,0,5.212,5.214v4.8a5.186,5.186,0,0,0,2.88,4.661l6.949,3.475a5.234,5.234,0,0,0,4.663,0l4.277-2.137,2.084,2.084v3.823a1.747,1.747,0,0,1-.125.644l-2.353,5.881a1.727,1.727,0,0,1-1.612,1.093h-2.448a5.177,5.177,0,0,0-4.661,2.88l-.79,1.579a8.638,8.638,0,0,0,.362,8.425l2.833,4.621a38.083,38.083,0,0,1-34.942,1.583l2.131-1.424a1.744,1.744,0,0,1,.959-.3h4.457a5.175,5.175,0,0,0,3.686-1.527l4.912-4.913a5.183,5.183,0,0,0,1.527-3.686v-8.024a5.214,5.214,0,0,0-.739-2.674l-3.71-6.206a5.242,5.242,0,0,0-4.453-2.5h-4.875a5.212,5.212,0,0,0-4.342,2.32l-1.921,2.892h-4.281a3.474,3.474,0,0,0-3.474,3.474v3.318a1.736,1.736,0,0,1-.8,1.46l-5.42,3.494a37.977,37.977,0,0,1-5.945-20.433c0-.582.016-1.161.042-1.737h3.023a1.729,1.729,0,0,1,1.553.961l2.034,4.076a3.457,3.457,0,0,0,3.108,1.912H164.2a3.476,3.476,0,0,0,3.346-4.431l-2.213-7.729h3.429A5.212,5.212,0,0,0,172.019,737l5.671-4.536a5.223,5.223,0,0,0,1.533-6.123l-2.973-6.949a1.739,1.739,0,0,1,.7-2.175l4.376-2.625a5.236,5.236,0,0,0,2.53-4.532l-.028-2.541a38.121,38.121,0,0,1,16.877.638l.891-3.352A41.7,41.7,0,1,0,232.52,745.09Zm-52.16-36.751.02,1.769a1.731,1.731,0,0,1-.844,1.509l-4.376,2.625a5.234,5.234,0,0,0-2.108,6.525l2.975,6.949a1.739,1.739,0,0,1-.511,2.042l-5.671,4.536a1.75,1.75,0,0,1-1.082.372h-3.429a3.475,3.475,0,0,0-3.348,4.429l2.215,7.731h-1.834l-2.036-4.069a5.174,5.174,0,0,0-4.659-2.88h-2.7A38.314,38.314,0,0,1,180.36,708.339Zm-19.814,60.03,5.311-3.423a5.2,5.2,0,0,0,2.387-4.378V757.25h4.281a3.476,3.476,0,0,0,2.892-1.549l1.925-2.89a1.739,1.739,0,0,1,1.446-.772h4.875a1.735,1.735,0,0,1,1.478.824l3.7,6.194a1.721,1.721,0,0,1,.248.89v8.024a1.738,1.738,0,0,1-.509,1.23l-4.913,4.912a1.738,1.738,0,0,1-1.23.509h-4.457a5.212,5.212,0,0,0-2.894.878l-3.7,2.474A38.544,38.544,0,0,1,160.545,768.369Z" transform="translate(-149.132 -703.385)" fill="#166587"/>
      </g>
      <path id="Trazado_55" data-name="Trazado 55" d="M196.123,731.39l-.523,3.9a1.782,1.782,0,0,0,.428,1.4l2.833,3.205a1.77,1.77,0,0,0,2.864-.3l3.512-6.208,6.592-2.726a1.766,1.766,0,0,0,.648-2.8l-2.833-3.2a1.755,1.755,0,0,0-1.341-.6l-3.936.042-2.7-2.456-2.373-2.821,13.361-6.983a1.768,1.768,0,0,0,.505-2.737L209.8,705.3a1.77,1.77,0,0,0-1.731-.551l-17.227,4.079-5.168-6.1a5.486,5.486,0,0,0-3.827-1.929,5.729,5.729,0,0,0-4.184,1.41,5.657,5.657,0,0,0-1.908,3.92,5.48,5.48,0,0,0,1.442,4.095l3.847,4.168,1.608,1.717-6.188,16.584a1.765,1.765,0,0,0,.333,1.789l3.365,3.809a1.769,1.769,0,0,0,2.779-.168l8.567-12.4,2.508,2.7Zm-13.147-26.383,5.867,6.931a1.772,1.772,0,0,0,1.757.578l17.249-4.084,1.171,1.321-13.311,6.957a1.768,1.768,0,0,0-.533,2.706l6.4,7.6a1.766,1.766,0,0,0,1.371.63l4.584-.048.658.743-4.865,2.013a1.765,1.765,0,0,0-.862.763l-2.593,4.58-.656-.741.608-4.544a1.773,1.773,0,0,0-.456-1.438l-6.767-7.286a1.767,1.767,0,0,0-2.749.2l-8.535,12.359-1.167-1.319,6.2-16.617a1.768,1.768,0,0,0-.366-1.826l-2.347-2.508-3.839-4.158a1.986,1.986,0,0,1-.513-1.482,2.147,2.147,0,0,1,2.31-2.021A1.982,1.982,0,0,1,182.976,705.008Z" transform="translate(-123.032 -700.778)" fill="#166587"/>
    </g>
  </g>
</svg>
