<svg xmlns="http://www.w3.org/2000/svg" width="92.677" height="18" viewBox="0 0 92.677 18">
  <g id="Grupo_205" data-name="Grupo 205" transform="translate(-18 -50)">
    <g id="Grupo_129" data-name="Grupo 129" transform="translate(18 51.299)">
      <g id="Grupo_128" data-name="Grupo 128">
        <path id="Trazado_140" data-name="Trazado 140" d="M75.1,5203.456l-1.657,2.308-3.963-5.52Z" transform="translate(-66.529 -5199.117)" fill="#fff"/>
        <path id="Trazado_141" data-name="Trazado 141" d="M68.678,5214.987a.779.779,0,0,1-.307-.1.766.766,0,0,1-.382-.661v-13.8a.762.762,0,0,1,.687-.759l5.5,7.658Z" transform="translate(-67.989 -5199.675)" fill="#fff"/>
        <path id="Trazado_142" data-name="Trazado 142" d="M69.477,5209.572l3.963-5.521,1.657,2.308Z" transform="translate(-66.529 -5195.384)" fill="#fff"/>
        <path id="Trazado_143" data-name="Trazado 143" d="M77.42,5205.557l-3.615,2.065-1.961-2.729,1.961-2.731,3.615,2.065a.767.767,0,0,1,0,1.329Z" transform="translate(-64.208 -5197.235)" fill="#fff"/>
        <path id="Trazado_144" data-name="Trazado 144" d="M74.659,5203.876" transform="translate(-61.448 -5195.555)" fill="#fff"/>
      </g>
    </g>
    <text id="Play_Store" data-name="Play Store" transform="translate(35.677 64)" fill="#fff" font-size="15" font-family="ArialRoundedMTBold, Arial Rounded MT Bold"><tspan x="0" y="0">Play Store</tspan></text>
  </g>
</svg>
