<?xml version="1.0" encoding="UTF-8"?>
<svg width="22px" height="17px" viewBox="0 0 22 17" version="1.1" xmlns="http://www.w3.org/2000/svg" xmlns:xlink="http://www.w3.org/1999/xlink">
    <!-- Generator: Sketch 59 (86127) - https://sketch.com -->
    <title>youtube</title>
    <desc>Created with Sketch.</desc>
    <g id="Page-1" stroke="none" stroke-width="1" fill="none" fill-rule="evenodd">
        <g id="youtube" fill="#FFFFFF" fill-rule="nonzero">
            <path d="M21.0074459,3.66776342 C21.0074459,3.59653054 20.7948918,2.02974085 20.1218176,1.28194159 C19.3070129,0.391718285 18.4213846,0.284889819 17.9608645,0.249252511 L17.8191756,0.249252511 C14.949695,0.0355955787 10.6632008,0 10.5923356,0 C10.5569237,0 6.23497616,0.0355955787 3.40090741,0.320485398 L3.29463035,0.320485398 C2.79861539,0.356080977 1.91298707,0.462909443 1.1336358,1.35313275 C0.425108237,2.10093201 0.212554118,3.703359 0.212554118,3.77459189 C0.212554118,3.77459189 0,5.59067581 0,7.40675973 L0,9.08041961 C0,10.860908 0.212554118,12.6769919 0.212554118,12.7125875 C0.212554118,12.7838203 0.425108237,14.35061 1.09818244,15.0984093 C1.84212186,15.953037 2.72775018,16.0598655 3.29458884,16.1310984 C3.4008659,16.1310984 3.47173111,16.1310984 3.57800817,16.1666939 C5.2075759,16.309118 10.37974,16.3803509 10.5922941,16.3803509 C10.6277059,16.3803509 14.9496535,16.3803509 17.8191341,16.0598655 L17.9254112,16.0598655 C18.4213846,16.0242699 19.3070129,15.9174414 20.0863642,15.0271764 C20.7948918,14.2793771 21.0074459,12.6769501 21.0074459,12.6057173 C21.0074459,12.6057173 21.22,10.7896333 21.22,8.97354941 L21.22,7.29993127 C21.22,5.51944292 21.0074459,3.703359 21.0074459,3.66776342 Z M20.5114724,9.0447823 C20.5114724,10.8252706 20.2989183,12.6057173 20.2989183,12.6057173 C20.2280531,12.9974355 20.015499,14.1369114 19.5549789,14.6354581 C18.9527284,15.3476618 18.2442423,15.418853 17.854546,15.4544903 L17.7482689,15.4544903 C14.9142001,15.6681472 10.6277059,15.6681472 10.5922941,15.6681472 C10.5568822,15.6681472 5.24302927,15.5969143 3.68428523,15.4188947 C3.57800817,15.4188947 3.47173111,15.3832991 3.36545405,15.3832991 C2.8694806,15.3477035 2.16099455,15.2408751 1.59415589,14.5999043 C1.16904765,14.1369948 0.921081685,12.9974773 0.885628322,12.605759 C0.885628322,12.5701634 0.673074204,10.7896751 0.673074204,9.04482403 L0.673074204,7.37116415 C0.673074204,5.59067581 0.885628322,3.8102292 0.885628322,3.8102292 C0.92104017,3.41851091 1.16904765,2.27903509 1.59415589,1.78048834 C2.23181824,1.06828466 2.90489245,0.997051773 3.33000068,0.961456194 L3.43627774,0.961456194 C6.2703465,0.747799262 10.5568407,0.712203683 10.5922526,0.712203683 C10.6276644,0.712203683 14.9142001,0.747799262 17.7482274,0.961456194 L17.8899163,0.961456194 C18.2796127,0.997051773 18.9880987,1.06828466 19.5903492,1.78048834 C20.0154575,2.27903509 20.2280116,3.41851091 20.2988768,3.8102292 C20.3342886,3.88146208 20.5114724,5.6619087 20.5114724,7.37116415 L20.5114724,9.0447823 L20.5114724,9.0447823 Z" id="Shape"></path>
            <path d="M15.0861778,8.1510069 L8.34972134,4.14917706 C8.24335602,4.07705794 8.10154944,4.07705794 7.99518412,4.14917706 C7.8888188,4.22129619 7.81789474,4.32945375 7.81789474,4.47364975 L7.81789474,12.2970327 C7.81789474,12.4412287 7.8888188,12.5493863 7.99518412,12.6215054 C8.06610819,12.6575439 8.10154944,12.6575439 8.17247351,12.6575439 C8.24339757,12.6575439 8.27883883,12.6575439 8.34976289,12.6215054 L15.0862194,8.79995228 C15.1925847,8.72783315 15.2635088,8.61967559 15.2635088,8.47547959 C15.2635088,8.33128359 15.1925432,8.22308377 15.0861778,8.1510069 Z" id="Shape" stroke="#FFFFFF"></path>
        </g>
    </g>
</svg>